<svg width="42" height="24" viewBox="0 0 42 24" fill="none" xmlns="http://www.w3.org/2000/svg">
<g clip-path="url(#clip0_549_1834)">
<path d="M6.27595 17.4968C5.11657 18.271 5.50303 19.7419 7.97636 20.4387C10.527 21.2903 13.3095 21.5226 16.0147 21.0581C16.1693 21.0581 16.3239 20.9806 16.4011 20.9806V18.3484L13.7732 19.2C12.7684 19.5097 11.7637 19.5871 10.7589 19.3548C9.98594 19.1226 10.1405 18.6581 11.068 18.271L16.4011 16.4129V13.5484L8.98115 16.1032C8.05365 16.4129 7.12615 16.8774 6.27595 17.4968ZM24.2076 5.88387V13.3935C27.3766 14.9419 29.8499 13.3935 29.8499 9.36774C29.8499 5.26452 28.3813 3.40645 24.1303 1.93548C21.8889 1.16129 19.5701 0.464516 17.2514 0V22.3742L22.6618 24V5.1871C22.6618 4.33548 22.6618 3.71613 23.2801 3.94839C24.1303 4.18065 24.2076 5.03226 24.2076 5.88387ZM34.2555 15.7161C32.0141 14.9419 29.618 14.6323 27.2993 14.8645C26.0626 14.9419 24.9032 15.2516 23.8211 15.6387L23.5893 15.7161V18.7355L28.6132 16.8774C29.618 16.5677 30.6228 16.4903 31.6276 16.7226C32.4005 16.9548 32.2459 17.4194 31.3184 17.8065L23.5893 20.671V23.6129L34.2555 19.6645C35.0284 19.3548 35.724 18.9677 36.3424 18.3484C36.8834 17.5742 36.6515 16.4903 34.2555 15.7161Z" fill="#E4E4E4"/>
</g>
<defs>
<clipPath id="clip0_549_1834">
<rect width="41" height="24" fill="white" transform="translate(0.5)"/>
</clipPath>
</defs>
</svg>
