<svg width="222" height="40" viewBox="0 0 222 40" fill="none" xmlns="http://www.w3.org/2000/svg">
<g clip-path="url(#clip0_549_107)">
<path d="M18.7695 17.5484L18.8247 35.0783L22.5081 36.2581C24.5339 36.8848 26.3019 37.4193 26.4308 37.4193C26.5966 37.4193 26.6518 34.2857 26.6518 22.3963C26.6518 6.24883 26.6334 6.47003 27.5727 6.1751C28.0515 6.02763 28.825 6.41473 29.3038 7.05989C29.6722 7.55759 29.6906 7.81565 29.7458 14.2857L29.8011 20.9769L30.9245 21.364C32.1952 21.788 33.8712 21.8617 34.9762 21.5299C37.5729 20.7557 38.991 17.1428 38.4753 12.6636C37.8307 6.94929 35.3813 4.71888 26.9281 2.13823C24.4418 1.38247 19.2299 -1.52588e-05 18.88 -1.52588e-05C18.7879 -1.52588e-05 18.7511 7.88939 18.7695 17.5484Z" fill="#FCFCFC"/>
<path d="M65.3267 20.4424V31.7051H67.3525H69.3783V21.659V11.6129H71.8277C73.9088 11.6129 74.3508 11.6682 74.8481 11.9816C75.6032 12.4424 75.9347 13.0876 76.2109 14.6544C76.5792 16.7742 76.1741 19.1337 75.2717 20.1475C74.756 20.7189 74.7192 20.7373 72.8959 20.7926L71.0358 20.8664V22.0461V23.2258H73.5773C75.9531 23.2258 76.1925 23.1889 77.0765 22.7466C79.4338 21.5668 80.6677 18.4516 80.2257 14.8019C79.9311 12.424 78.8445 10.5807 77.2238 9.7143C76.5056 9.3272 76.2293 9.30877 70.9069 9.25347L65.3267 9.19817V20.4424Z" fill="#FCFCFC"/>
<path d="M82.8225 20.4608V31.7051H84.7563H86.69V20.4608V9.2166H84.7563H82.8225V20.4608Z" fill="#FCFCFC"/>
<path d="M127.262 9.54839C125.678 10.0645 124.757 10.8571 124.058 12.2765C123.468 13.4747 123.431 13.6406 123.431 15.576C123.431 17.4194 123.468 17.6959 123.947 18.6544C124.923 20.6267 126.378 21.4931 129.196 21.7696C131.222 21.9539 131.7 22.1935 132.271 23.3364C132.787 24.3687 132.787 26.9309 132.271 27.8157C131.498 29.1244 131.24 29.1982 127.52 29.3088L124.168 29.4009V30.5069V31.6129L128.036 31.6682C132.198 31.7235 133.119 31.6129 134.26 30.8571C135.881 29.788 136.618 28.0369 136.618 25.1613C136.618 23.0599 136.323 21.8618 135.494 20.6267C134.647 19.3364 133.542 18.8203 130.945 18.5253C128.588 18.2488 128.072 18.0092 127.538 16.9401C127.096 16.0737 127.096 14.1567 127.557 13.1429C128.164 11.8157 128.478 11.7051 132.216 11.6498L135.494 11.576V10.3963V9.21659L131.866 9.23502C128.975 9.23502 128.017 9.30875 127.262 9.54839Z" fill="#FCFCFC"/>
<path d="M177.3 10.8756V12.5346H179.326H181.352V10.8756V9.2166H179.326H177.3V10.8756Z" fill="#FCFCFC"/>
<path d="M139.583 19.9447L139.638 28.2949L140.135 29.235C140.706 30.341 141.756 31.2627 142.677 31.5207C143.027 31.6313 144.095 31.7051 145.034 31.7051H146.728V30.5069V29.3088H145.734C143.579 29.3088 143.597 29.3641 143.597 22.4885V16.9585H145.715H147.833V15.7604V14.5622H145.715H143.597V13.0876V11.6129H141.572H139.527L139.583 19.9447Z" fill="#FCFCFC"/>
<path d="M166.618 19.3548C166.618 24.2212 166.692 27.4286 166.821 28.0184C167.116 29.4194 168 30.5991 169.178 31.2074C170.081 31.6498 170.375 31.7051 172.088 31.7051H173.985V30.5069V29.3088H172.898C171.996 29.3088 171.701 29.235 171.278 28.8664L170.762 28.424L170.707 22.6913L170.652 16.9585H172.77H174.906V15.7604V14.5622H172.788H170.67V13.0876V11.6129H168.644H166.618V19.3548Z" fill="#FCFCFC"/>
<path d="M94.6828 14.7466C93.4858 14.9862 92.1413 15.7604 91.4047 16.6083C90.0418 18.212 89.563 20.4793 89.6735 25.0507C89.7288 27.9631 89.7472 28.1659 90.2444 29.1613C90.8338 30.3595 91.7178 31.1889 92.7491 31.5023C93.1358 31.6129 94.4618 31.7051 95.6958 31.7051H97.9242V30.5069V29.3088H96.3772C94.9959 29.3088 94.7565 29.2535 94.2961 28.8664L93.7804 28.424L93.7252 24.8664C93.6515 20 94.0014 18.1567 95.1248 17.3825C95.5116 17.1429 96.1009 17.0507 97.6111 16.9954L99.5817 16.9217V24.3134V31.7051H101.608H103.633V23.1337V14.5622L99.5448 14.5807C97.2796 14.5991 95.088 14.6728 94.6828 14.7466Z" fill="#FCFCFC"/>
<path d="M105.843 14.6728C105.843 14.7465 107.132 18.5806 108.698 23.1889L111.571 31.5945L109.987 35.6313C109.121 37.8433 108.422 39.7419 108.422 39.8341C108.422 39.9263 109.195 40 110.134 40H111.829L116.856 27.4101C119.601 20.4977 121.866 14.765 121.866 14.6912C121.866 14.6175 121.019 14.5806 119.987 14.5991L118.09 14.6544L115.991 20.129C114.831 23.1521 113.818 25.5668 113.744 25.4747C113.689 25.4009 112.805 22.9124 111.81 19.9631L109.987 14.5622H107.924C106.783 14.5622 105.843 14.6175 105.843 14.6728Z" fill="#FCFCFC"/>
<path d="M154.187 14.8203C151.756 15.4286 150.393 16.9032 149.749 19.6682C149.528 20.6267 149.472 21.7512 149.528 24.7005C149.583 28.9032 149.693 29.2903 151.001 30.5438C152.014 31.5207 152.695 31.7051 155.292 31.7051H157.594V30.5069V29.3088H156.047C154.095 29.3088 153.8 29.106 153.524 27.5576C153.248 26.0645 153.469 20.5346 153.856 19.1152C154.353 17.3272 155.255 16.8664 158.055 16.9954L159.344 17.0507L159.399 24.3687L159.436 31.7051H161.462H163.488L163.451 23.1705L163.395 14.6544L159.252 14.6175C156.452 14.5991 154.813 14.6728 154.187 14.8203Z" fill="#FCFCFC"/>
<path d="M177.3 23.1337V31.7051H179.326H181.352V23.1337V14.5622H179.326H177.3V23.1337Z" fill="#FCFCFC"/>
<path d="M188.995 14.8203C186.49 15.447 184.943 17.0507 184.28 19.7235C183.967 21.0507 183.948 25.0323 184.28 26.4885C184.409 27.1152 184.796 28.1106 185.127 28.7005C186.306 30.8571 188.46 31.8157 191.72 31.6682C195.459 31.4839 197.356 30.0645 198.184 26.8571C198.829 24.3871 198.7 20.6267 197.89 18.4885C197.429 17.235 196.306 15.9816 195.164 15.3917C193.599 14.5991 190.91 14.341 188.995 14.8203ZM193.157 17.5115C193.857 18.0276 194.243 19.1521 194.483 21.3456C194.851 24.8295 194.243 28.0922 193.065 28.8479C192.457 29.2535 190.928 29.4009 190.118 29.1244C188.774 28.682 188.221 27.4286 188.055 24.3318C187.853 21.1429 188.405 18.3041 189.344 17.53C190.118 16.8848 192.273 16.8848 193.157 17.5115Z" fill="#FCFCFC"/>
<path d="M201.242 23.1337V31.7051H203.175H205.109L205.146 24.3687L205.201 17.0507H207.227C208.848 17.0691 209.345 17.1244 209.75 17.4009C210.929 18.1751 211.187 19.7788 211.187 26.5807V31.7051H213.231H215.275L215.183 26.1198C215.109 22.1936 215.017 20.2581 214.833 19.5392C214.336 17.6406 213.452 16.2949 212.181 15.5576C210.782 14.7281 209.64 14.5622 205.257 14.5622H201.242V23.1337Z" fill="#FCFCFC"/>
<path d="M10.4451 23.576C3.0784 26.212 1.56823 26.9124 0.81315 28.0184C0.371149 28.6452 0.426399 29.2903 0.960483 30.083C1.49457 30.8756 2.69165 31.5023 4.86482 32.1475C7.66415 32.9954 9.80048 33.235 13.1707 33.1244C14.8651 33.0691 16.4305 32.977 16.6699 32.9032C17.0567 32.7742 17.0751 32.682 17.0751 30.765C17.0751 29.659 17.0567 28.7558 17.0198 28.7558C17.0014 28.7558 15.9332 29.1244 14.6809 29.5668C13.4101 30.0092 11.9368 30.4332 11.4027 30.5069C10.0951 30.6728 8.52973 30.4701 8.01407 30.0461C7.6089 29.7327 7.6089 29.6959 7.92198 29.3456C8.10615 29.1429 10.0767 28.3318 12.5261 27.4654C14.8835 26.6175 16.8725 25.8802 16.9461 25.8065C17.0198 25.7327 17.0567 24.682 17.0382 23.4654L16.983 21.235L10.4451 23.576Z" fill="#FCFCFC"/>
<path d="M32.6188 23.576C31.5874 23.7604 30.1509 24.0922 29.4327 24.3134L28.1251 24.7189V27.0968V29.4747L29.6537 28.9401C30.4824 28.6636 32.6004 27.9078 34.3684 27.2995C37.8491 26.0645 39.5619 25.7696 40.9431 26.1567C42.0113 26.4516 42.2875 26.8203 41.8087 27.318C41.5877 27.5392 38.7331 28.6452 34.8288 30.0461L28.2172 32.3871L28.1619 34.7281L28.1067 37.0507L29.0828 36.682C29.6169 36.4977 33.5396 35.0783 37.7939 33.5484C42.0481 32.0184 46.0445 30.5253 46.6523 30.2304C47.2784 29.917 48.0888 29.3456 48.4571 28.9401C50.3172 26.894 48.2729 25.1244 42.4901 23.7604C40.1696 23.2074 35.1234 23.1152 32.6188 23.576Z" fill="#FCFCFC"/>
<path d="M218.756 28.2765C217.706 28.8664 217.504 30.3226 218.351 31.1705C219.824 32.6267 222.145 30.9309 221.279 29.0323C220.874 28.1475 219.658 27.7788 218.756 28.2765ZM220.671 28.8479C221.629 29.788 221.003 31.3364 219.677 31.3364C218.811 31.3364 218.185 30.7466 218.185 29.8802C218.185 28.5161 219.714 27.871 220.671 28.8479Z" fill="#FCFCFC"/>
<path d="M218.922 29.7696C218.922 30.3226 219.014 30.7834 219.106 30.7834C219.216 30.7834 219.29 30.6175 219.29 30.4148C219.29 30.1567 219.419 30.0461 219.677 30.0461C219.898 30.0461 220.1 30.1936 220.156 30.4148C220.321 31.0415 220.487 30.8203 220.487 29.9908C220.469 28.9585 220.321 28.7558 219.548 28.7558H218.922V29.7696ZM220.119 29.4009C220.119 29.4931 219.935 29.6037 219.714 29.6406C219.419 29.6774 219.29 29.6037 219.29 29.4009C219.29 29.1982 219.419 29.1244 219.714 29.1613C219.935 29.1982 220.119 29.2903 220.119 29.4009Z" fill="#FCFCFC"/>
<path d="M45.5105 33.917C44.958 34.1382 44.3318 34.9862 44.3318 35.5207C44.3318 36.1106 44.8106 36.9954 45.2342 37.235C45.4368 37.3272 45.8972 37.4193 46.2655 37.4193C48.1256 37.4193 48.6781 34.8203 47.0022 34.0092C46.3208 33.6958 46.0814 33.6774 45.5105 33.917ZM47.168 34.4885C47.5179 34.765 47.6468 35.0415 47.6468 35.4839C47.6468 36.3502 47.4995 36.6636 46.8733 36.9769C45.3815 37.7511 43.9635 35.7419 45.1605 34.5622C45.713 33.9908 46.505 33.9723 47.168 34.4885Z" fill="#FCFCFC"/>
<path d="M45.4368 35.576C45.4368 36.1843 45.5104 36.682 45.6209 36.682C45.7314 36.682 45.8051 36.4608 45.8051 36.2028C45.8051 35.8157 45.8788 35.7419 46.2287 35.7972C46.4865 35.8341 46.6523 36 46.6891 36.2581C46.7996 37.0691 47.0574 36.682 47.039 35.7604C47.0022 34.7281 46.7812 34.47 45.9524 34.47C45.4552 34.47 45.4368 34.4885 45.4368 35.576ZM46.6891 35.1521C46.7259 35.2995 46.5786 35.3917 46.2839 35.3917C45.9709 35.3917 45.8051 35.2995 45.8051 35.0968C45.8051 34.7465 46.5602 34.8018 46.6891 35.1521Z" fill="#FCFCFC"/>
</g>
<defs>
<clipPath id="clip0_549_107">
<rect width="221" height="40" fill="white" transform="translate(0.5)"/>
</clipPath>
</defs>
</svg>
